<svg width="344" height="329" viewBox="0 0 344 329" fill="none" xmlns="http://www.w3.org/2000/svg">
<path d="M157.652 9.0718C163.521 -2.82013 180.479 -2.82016 186.348 9.07177L227.056 91.5552C229.386 96.2775 233.891 99.5506 239.103 100.308L330.129 113.535C343.252 115.442 348.492 131.569 338.996 140.826L273.129 205.03C269.358 208.706 267.637 214.002 268.528 219.192L284.077 309.85C286.318 322.921 272.6 332.888 260.862 326.717L179.445 283.914C174.784 281.464 169.216 281.464 164.555 283.914L83.1385 326.717C71.4005 332.888 57.6815 322.921 59.9233 309.85L75.4724 219.192C76.3626 214.002 74.6418 208.706 70.8708 205.03L5.00391 140.826C-4.49236 131.569 0.747776 115.442 13.8713 113.535L104.897 100.308C110.109 99.5506 114.614 96.2775 116.944 91.5552L157.652 9.0718Z" fill="white"/>
</svg>
