<svg width="366" height="366" viewBox="0 0 366 366" fill="none" xmlns="http://www.w3.org/2000/svg">
<path d="M168.962 8.66685C175.031 -2.42987 190.969 -2.42984 197.038 8.66688L251.462 108.178C252.93 110.862 255.138 113.07 257.822 114.538L357.333 168.962C368.43 175.031 368.43 190.969 357.333 197.038L257.822 251.462C255.138 252.93 252.93 255.138 251.462 257.822L197.038 357.333C190.969 368.43 175.031 368.43 168.962 357.333L114.538 257.822C113.07 255.138 110.862 252.93 108.178 251.462L8.66685 197.038C-2.42987 190.969 -2.42984 175.031 8.66688 168.962L108.178 114.538C110.862 113.07 113.07 110.862 114.538 108.178L168.962 8.66685Z" fill="white"/>
</svg>
